<svg xmlns="http://www.w3.org/2000/svg" fill="black" viewBox="0 0 276 142" class="" data-v-ae692ba3=""><path d="M115.3 82.02h51.09a46.13 46.13 0 0 0-1.92 4.06 34.4 34.4 0 0 0-1.88 6c-.24 1.1-.46 2.3-.63 3.7h-32.49a44.17 44.17 0 0 0-.28 7.53h32.18a47.64 47.64 0 0 0 .84 7.16 57.71 57.71 0 0 0 1.88 7.4H131.9a66.32 66.32 0 0 0 3.4 8.57h32.51a82.6 82.6 0 0 0 7.3 12.5c.74 1.07 1.57 1.8 2.54 3.06h-51.1c-1.3-1.7-2.48-2.94-3.57-4.55a81.63 81.63 0 0 1-7.35-13.35 70.28 70.28 0 0 1-2.87-7.92 59.74 59.74 0 0 1-1.67-7.47 49.87 49.87 0 0 1-.45-10.95 41.96 41.96 0 0 1 1.27-7.41c.34-1.25.75-2.5 1.25-3.77A43.1 43.1 0 0 1 115.3 82v.02ZM175.73 82.02h25.5c.46 1.33.84 2.94 1.48 3.97a98.55 98.55 0 0 0 3.97 6.03 123.75 123.75 0 0 0 4.34 5.82 158.94 158.94 0 0 0 5.03 6.13 220.15 220.15 0 0 0 10.24 11.1 59.44 59.44 0 0 1-1.74-9.45 47.4 47.4 0 0 1-.1-7.78 38.56 38.56 0 0 1 2.43-11.08c.5-1.28 1.3-3.07 2.2-4.74h18.16a37.23 37.23 0 0 0-4.62 15.8 47.58 47.58 0 0 0 .5 11 55.82 55.82 0 0 0 1.7 7.5 66.2 66.2 0 0 0 2.87 7.94 78.66 78.66 0 0 0 4.38 8.62c.88 1.51 1.85 3.06 2.91 4.65 1.07 1.6 2.24 2.8 3.53 4.47h-20.05c-1.5-1.01-2.94-1.56-4.3-2.5a373.3 373.3 0 0 1-7.52-5.4 283.25 283.25 0 0 1-25.87-21.66 243.41 243.41 0 0 1-5.6-5.54 55.48 55.48 0 0 0 1.66 8.38 66.47 66.47 0 0 0 4.09 11 79.25 79.25 0 0 0 4.02 7.5 89.4 89.4 0 0 0 2.64 4.14c.97 1.43 2.05 2.5 3.26 4.08h-23.85c-1.3-1.7-2.47-2.91-3.55-4.51a88.72 88.72 0 0 1-5.34-9.1 78.43 78.43 0 0 1-3.58-8.25 65.53 65.53 0 0 1-2.24-7.67 57.93 57.93 0 0 1-1.14-7.36 48.41 48.41 0 0 1-.04-7.31 40.98 40.98 0 0 1 1.25-7.43 37 37 0 0 1 1.25-3.77 43.8 43.8 0 0 1 2.13-4.58ZM126.86 0h18c1.58 2.05 3 3.98 4.28 5.77 1.28 1.8 2.43 3.48 3.45 5.08 1.03 1.6 1.94 3.1 2.74 4.54.8 1.43 1.5 2.8 2.1 4.13.61 1.32 1.13 2.59 1.56 3.82a34.9 34.9 0 0 1 1.07 3.6 29.4 29.4 0 0 1 .8 6.86 28.03 28.03 0 0 1-.85 6.8 42.74 42.74 0 0 1-4.7 11.45 49.95 49.95 0 0 1-2.44 3.75 63.56 63.56 0 0 1-2.75 3.57c-.97 1.16-1.98 2.32-3.03 3.48-1.05 1.17-2.13 2.34-3.24 3.56-1.1 1.2-2.24 2.46-3.38 3.79h-18c1.13-1.33 2.26-2.58 3.37-3.8 1.1-1.2 2.2-2.38 3.25-3.55 1.04-1.16 2.06-2.32 3.02-3.48a65.51 65.51 0 0 0 2.75-3.57A44.08 44.08 0 0 0 142 40.6a31.28 31.28 0 0 0 .85-6.8 27.45 27.45 0 0 0-.8-6.85 35.08 35.08 0 0 0-1.05-3.6c-.44-1.23-.95-2.5-1.56-3.82-.6-1.33-1.3-2.7-2.11-4.14-.8-1.43-1.7-2.94-2.74-4.53-1.02-1.6-2.17-3.28-3.45-5.08-1.28-1.8-2.7-3.72-4.28-5.78Z"></path><path d="M158.53 67.23c-2.63-1.87-2.54-5.31-1.14-8.5 1.18-2.66 4.74-7.95 6.19-10.86h18.83c-.5 1.13-3.13 4.92-3.44 6.01-1.1 4.6 4.7 3.8 7.12 3.59 2.2-.36 4.43-1.13 6.2-2.77a7.15 7.15 0 0 0 2.46-4.09c.41-4.22-9.87-8.63-12.24-9.78-8.32-4.02-18.37-9.5-18.37-20.7 0-9.28 7.64-20.13 19.63-20.13 13.31 0 24.95 1.7 33.46 23.95h-19.7c-1.07-9.73-14.83-8.54-14.83-3.56 0 9.94 26.91 4.06 32.56 24.79 2.5 9.17-9.78 25.02-37.18 25.02-4.75 0-15.46-.12-19.56-2.97h.01Z"></path><path d="M213.36 0h46.82a219.08 219.08 0 0 1 5.55 7.6 130.14 130.14 0 0 1 3.9 6.03 70.86 70.86 0 0 1 3.35 6.41h-27.83a39.49 39.49 0 0 1 1.74 4.57c.42 1.35.77 2.68 1.06 4.44H275.62a28.45 28.45 0 0 1-.5 11.73 37.56 37.56 0 0 1-1.4 4.5h-27.68a44.67 44.67 0 0 1-5.31 10H268.57a59.35 59.35 0 0 1-2.65 3.5 87.63 87.63 0 0 1-2.42 2.86c-.79.9-1.56 1.74-2.36 2.62l-2.5 2.74c-.88.96-1.82 2-2.84 3.2h-46.82c1.14-1.33 2.27-2.58 3.38-3.8 1.1-1.2 2.2-2.38 3.24-3.55 1.05-1.16 2.06-2.32 3.02-3.48a69.3 69.3 0 0 0 2.76-3.56 51.04 51.04 0 0 0 2.44-3.75 43.54 43.54 0 0 0 4.7-11.45 30.31 30.31 0 0 0 .83-6.82 28.29 28.29 0 0 0-.8-6.85 34.95 34.95 0 0 0-1.07-3.61c-.44-1.24-.95-2.5-1.56-3.83-.6-1.32-1.3-2.7-2.11-4.13-.8-1.44-1.71-2.94-2.73-4.54-1.03-1.6-2.17-3.27-3.45-5.07-1.28-1.79-2.7-3.71-4.27-5.76ZM114.52 0H96.34c1.28 2.01 2.41 3.88 3.42 5.6a98 98 0 0 1 2.64 4.87 68.76 68.76 0 0 1 2 4.31 50.23 50.23 0 0 1 1.48 3.9c.4 1.25.74 2.45 1 3.62a32.93 32.93 0 0 1 .82 6.78 28.83 28.83 0 0 1-.74 6.75 33.8 33.8 0 0 1-1.03 3.58 40.9 40.9 0 0 1-1.56 3.85 48.77 48.77 0 0 1-5.02 8.59c.28-1.32.5-2.66.66-4.03a31.02 31.02 0 0 0-.55-10.99c-.26-1.1-.57-2.16-.94-3.21a36.14 36.14 0 0 0-1.27-3.12 44.22 44.22 0 0 0-3.48-6.22 70.93 70.93 0 0 0-2.26-3.24 121.16 121.16 0 0 0-5.82-7.14 185.36 185.36 0 0 0-3.71-4.09A514.36 514.36 0 0 0 72.4 0H55.44c1.1 2.02 2.06 3.87 2.89 5.6a78.78 78.78 0 0 1 2.13 4.88c.6 1.52 1.11 2.95 1.53 4.3.42 1.37.75 2.67 1.02 3.91a34.97 34.97 0 0 1 .74 7.06 29.84 29.84 0 0 1-1.83 10.08c-.41 1.16-.9 2.35-1.49 3.58a49.65 49.65 0 0 1-2.03 3.85 64.89 64.89 0 0 1-2.71 4.23 52.27 52.27 0 0 1-3.37 4.35c.45-1.32.83-2.66 1.16-4.03.33-1.38.57-2.72.73-3.98a31.82 31.82 0 0 0 .08-7 28.92 28.92 0 0 0-1.39-6.32 44.55 44.55 0 0 0-2.69-6.22 73.5 73.5 0 0 0-4.12-6.68 102.6 102.6 0 0 0-2.72-3.7c-1-1.3-2.07-2.65-3.26-4.09a221.55 221.55 0 0 0-3.91-4.58A362.9 362.9 0 0 0 31.5 0H16.09c1.56 2.04 2.98 3.97 4.28 5.8 1.3 1.84 2.47 3.58 3.53 5.25a86.6 86.6 0 0 1 2.84 4.77c.83 1.53 1.56 3 2.2 4.41.62 1.42 1.15 2.8 1.59 4.13.43 1.34.78 2.65 1.03 3.93a29.63 29.63 0 0 1 .52 7.49 30.67 30.67 0 0 1-1.35 7.36 42.85 42.85 0 0 1-3 7.4 46.55 46.55 0 0 1-3.88 6.3 65.85 65.85 0 0 1-4.35 5.4c-.75.87-1.5 1.71-2.26 2.55l-2.28 2.5c-.76.84-1.51 1.69-2.26 2.55-.75.85-1.5 1.73-2.21 2.62a63.36 63.36 0 0 0-4.16 5.79 44.75 44.75 0 0 0-3.53 6.94 37.34 37.34 0 0 0-2.25 8.2 43.08 43.08 0 0 0-.48 9.24 57.16 57.16 0 0 0 1.51 10.2c.43 1.78.95 3.6 1.58 5.45a72.94 72.94 0 0 0 5.04 11.51 98.05 98.05 0 0 0 7.9 12.2h12.04l3.38.01a81.56 81.56 0 0 1-5.22-10.08 70.34 70.34 0 0 1-3.15-9.03 62.07 62.07 0 0 1-1.63-8.25 53.57 53.57 0 0 1-.17-11.57 47.18 47.18 0 0 1 1.4-7.57 44.43 44.43 0 0 1 2.91-7.63 44.33 44.33 0 0 1 4.8-7.62c-.3 1.15-.54 2.32-.74 3.52a37.75 37.75 0 0 0-.26 10.79 49.4 49.4 0 0 0 1.31 7.1 61.86 61.86 0 0 0 2.31 7.13 70.13 70.13 0 0 0 3.33 7.37 86.39 86.39 0 0 0 4.55 7.84 100.3 100.3 0 0 0 6.16 8.55 120.65 120.65 0 0 0 8.33 9.45H72.4a72.35 72.35 0 0 1-4.27-10.02 63.84 63.84 0 0 1-2.9-13.22 57.05 57.05 0 0 1-.26-7.99 51.43 51.43 0 0 1 1.82-11.45 46.88 46.88 0 0 1 4.96-11.44 46.39 46.39 0 0 1 2.62-3.86c.96-1.28 2-2.53 3.1-3.76a43.25 43.25 0 0 0-1.25 3.76 35.27 35.27 0 0 0-1.3 7.7 41.73 41.73 0 0 0 .2 7.6 52.1 52.1 0 0 0 1.42 7.6 62.75 62.75 0 0 0 2.56 7.8 75.14 75.14 0 0 0 3.86 8.27 89.13 89.13 0 0 0 5.53 9.01 106.28 106.28 0 0 0 7.84 10h18.18a95.11 95.11 0 0 1-7.8-12.07c-1.05-1.97-2-3.92-2.83-5.84a73.2 73.2 0 0 1-2.2-5.66 59.43 59.43 0 0 1-2.63-10.7 53.78 53.78 0 0 1-.52-5 46.76 46.76 0 0 1 .44-9.3 38.01 38.01 0 0 1 3.91-11.87 45.16 45.16 0 0 1 3.89-6.3 66.16 66.16 0 0 1 4.34-5.4c.75-.87 1.5-1.71 2.26-2.55l2.28-2.5 2.26-2.55a88.92 88.92 0 0 0 4.35-5.4 49.88 49.88 0 0 0 3.88-6.3 46.89 46.89 0 0 0 3-7.4c.37-1.25.67-2.48.9-3.7a29.19 29.19 0 0 0-.09-11.2c-.25-1.28-.6-2.59-1.04-3.93a43.88 43.88 0 0 0-1.6-4.14 57.29 57.29 0 0 0-2.2-4.4A85.11 85.11 0 0 0 122.3 11c-1.06-1.66-2.23-3.39-3.52-5.22-1.3-1.83-2.71-3.76-4.26-5.79ZM52.14 117.85l-.47-.83a78.55 78.55 0 0 1-2.97-5.94 64 64 0 0 1-1.83-4.64c-.6-1.69-1.14-3.5-1.59-5.39-.44-1.89-.79-3.85-.99-5.84-.2-1.99-.25-4-.12-6 .12-1.98.45-3.96.92-5.82a35 35 0 0 1 4.11-9.77c.86-1.42 1.8-2.75 2.77-4a57.76 57.76 0 0 1 3-3.56 140.4 140.4 0 0 1 3.4-3.57c1.23-1.26 2.53-2.58 3.87-4a90.15 90.15 0 0 0 4.03-4.54 61.32 61.32 0 0 0 7.19-10.83c.95-1.8 1.75-3.51 2.4-5.15a39.28 39.28 0 0 0 1.52-4.65 33.25 33.25 0 0 0 1.02-10.3 47.45 47.45 0 0 0-.2-2.4 57.27 57.27 0 0 0 2.37 3.37 45.76 45.76 0 0 1 2.19 3.74c.74 1.42 1.46 3 2.04 4.72a26.86 26.86 0 0 1 1.34 11.76 34.87 34.87 0 0 1-3.93 12.53 40.74 40.74 0 0 1-3.19 4.99 56.04 56.04 0 0 1-3.57 4.32 126 126 0 0 1-3.12 3.28c-1.12 1.14-2.32 2.36-3.54 3.64a100.97 100.97 0 0 0-3.72 4.09c-1.24 1.45-2.47 2.99-3.64 4.64a49.09 49.09 0 0 0-7.7 16.24 52.84 52.84 0 0 0-1.67 10.02 58.3 58.3 0 0 0-.09 7.17c.04.87.1 1.55.12 2l.06.71h-.01Z"></path></svg>