<?xml version="1.0" standalone="no"?>
<!DOCTYPE svg PUBLIC "-//W3C//DTD SVG 20010904//EN"
 "http://www.w3.org/TR/2001/REC-SVG-20010904/DTD/svg10.dtd">
<svg version="1.0" xmlns="http://www.w3.org/2000/svg"
 width="1104.000000pt" height="1104.000000pt" viewBox="0 0 1104.000000 1104.000000"
 preserveAspectRatio="xMidYMid meet">
<metadata>
Created by potrace 1.14, written by Peter Selinger 2001-2017
</metadata>
<g transform="translate(0.000000,1104.000000) scale(0.100000,-0.100000)"
fill="#000000" stroke="none">
<path d="M650 8355 c0 -5 140 -195 151 -205 10 -9 195 -294 228 -350 139 -241
223 -465 247 -660 12 -95 6 -304 -11 -359 -2 -9 -6 -27 -9 -41 -6 -39 -26
-113 -36 -135 -4 -11 -21 -54 -36 -95 -41 -114 -162 -341 -215 -404 -5 -6 -30
-38 -55 -71 -55 -72 -98 -126 -127 -158 -32 -35 -121 -134 -180 -201 -29 -32
-61 -68 -72 -80 -12 -11 -43 -48 -70 -81 -28 -33 -58 -69 -68 -80 -10 -11 -54
-74 -99 -139 -116 -173 -200 -352 -244 -518 -21 -84 -24 -95 -44 -238 -8 -59
-6 -362 4 -420 3 -19 8 -55 11 -80 3 -25 11 -65 16 -90 6 -25 12 -54 14 -65 4
-22 12 -57 15 -65 1 -3 3 -9 4 -15 18 -97 101 -322 175 -476 22 -47 41 -91 41
-97 0 -7 3 -12 8 -12 4 0 14 -15 21 -32 35 -79 178 -307 280 -445 l46 -63 303
0 c185 0 302 4 302 10 0 5 -14 33 -31 62 -44 74 -142 270 -174 348 -81 198
-153 446 -170 593 -3 21 -7 42 -9 46 -8 13 -19 191 -19 301 0 104 8 235 17
276 2 12 7 39 10 60 13 79 49 219 58 225 5 3 9 8 8 10 -13 25 92 262 161 367
16 24 29 45 29 48 0 6 81 114 86 114 1 0 -2 -15 -7 -32 -38 -130 -51 -430 -25
-574 3 -17 8 -46 11 -65 11 -83 16 -103 55 -239 26 -88 58 -187 70 -215 5 -11
21 -49 35 -85 31 -76 127 -267 180 -360 21 -36 43 -74 49 -85 32 -55 130 -200
137 -203 5 -2 9 -8 9 -13 0 -5 18 -33 40 -62 22 -29 51 -65 63 -82 12 -16 64
-81 116 -145 90 -110 116 -139 222 -251 l46 -49 337 0 c185 0 336 2 336 4 0 2
-18 43 -41 92 -66 145 -68 149 -106 256 -56 160 -86 274 -108 408 -3 19 -8 42
-11 51 -9 32 -26 247 -27 344 0 65 11 248 18 280 3 11 7 36 10 55 4 33 9 58
19 105 19 87 28 123 35 140 5 11 17 45 26 75 36 116 170 386 198 398 4 2 7 8
7 14 0 14 92 138 102 138 4 0 8 6 8 13 1 13 59 81 65 75 2 -1 -8 -36 -21 -77
-13 -41 -26 -86 -29 -100 -54 -276 -54 -462 0 -758 8 -42 64 -248 79 -288 90
-238 130 -328 238 -522 72 -130 118 -206 131 -211 4 -2 7 -8 7 -13 0 -8 66
-104 157 -228 23 -31 105 -134 113 -141 3 -3 25 -29 49 -57 l43 -53 364 0 364
0 -38 51 c-20 28 -41 58 -47 67 -5 9 -12 19 -15 22 -11 11 -100 150 -147 230
-174 292 -321 674 -357 925 -4 23 -9 52 -11 65 -28 143 -33 377 -11 545 10 77
18 120 27 136 4 9 6 19 3 21 -9 10 66 219 117 324 48 101 190 325 210 332 5 2
9 10 9 17 0 7 3 15 7 17 5 2 28 28 53 58 25 30 56 67 70 81 14 15 44 48 67 75
23 27 61 69 83 94 23 25 62 68 85 95 24 28 55 64 70 80 15 17 54 66 88 110 33
44 65 82 69 83 4 2 8 8 8 13 0 6 17 36 39 67 45 67 129 232 160 317 13 33 29
76 36 95 8 19 21 67 30 105 8 39 18 81 21 95 4 14 8 90 9 170 4 154 -8 246
-47 375 -12 39 -22 75 -24 81 -4 24 -79 185 -126 274 -28 52 -56 105 -62 117
-6 13 -14 23 -18 23 -5 0 -8 6 -8 13 0 13 -159 251 -275 410 l-70 97 -369 0
c-351 0 -368 -1 -354 -17 44 -51 269 -453 264 -473 0 -3 7 -17 16 -32 17 -25
66 -139 73 -168 2 -8 11 -35 20 -60 17 -47 49 -177 60 -245 15 -89 12 -270 -6
-370 -22 -127 -24 -133 -43 -178 -8 -20 -13 -37 -11 -37 15 0 -160 -356 -193
-396 -5 -5 -22 -29 -37 -52 -15 -23 -29 -42 -30 -42 -2 0 1 18 6 40 20 89 23
121 23 265 1 130 -3 180 -19 267 -9 44 -39 144 -46 152 -5 6 -9 17 -9 25 0 17
-112 252 -130 273 -23 28 -70 104 -70 115 0 6 -4 13 -8 15 -5 2 -28 30 -53 63
-24 33 -48 65 -54 72 -5 6 -21 26 -35 44 -30 39 -133 163 -152 182 -7 8 -40
45 -73 82 -33 37 -149 160 -259 271 l-199 204 -338 0 c-318 0 -338 -1 -331
-17 4 -10 23 -47 42 -83 96 -181 198 -430 225 -545 1 -5 5 -17 8 -25 3 -8 9
-33 13 -55 4 -22 9 -49 11 -60 28 -155 26 -355 -6 -494 -19 -82 -71 -232 -99
-287 -5 -11 -19 -37 -30 -59 -20 -39 -42 -79 -78 -142 -11 -18 -23 -33 -27
-33 -5 0 -6 -4 -2 -9 3 -5 -1 -15 -8 -23 -7 -7 -38 -49 -70 -93 -69 -97 -96
-129 -103 -123 -2 3 0 18 6 34 66 173 84 471 41 669 -15 64 -48 165 -78 235
-34 78 -103 212 -119 231 -8 8 -14 19 -14 22 0 28 -310 448 -393 531 -6 7 -28
32 -47 56 -19 24 -54 64 -77 89 -24 25 -69 76 -100 113 l-58 67 -307 0 c-170
1 -308 -1 -308 -4z m2532 -898 c45 -61 148 -232 148 -245 0 -4 10 -27 22 -52
22 -46 28 -61 46 -115 11 -32 28 -100 38 -150 29 -145 4 -449 -46 -560 -5 -11
-14 -38 -21 -60 -23 -77 -137 -294 -184 -354 -8 -9 -40 -50 -72 -91 -54 -68
-144 -166 -318 -345 -93 -95 -156 -164 -210 -230 -28 -33 -52 -62 -55 -65 -40
-39 -170 -241 -227 -351 -64 -123 -135 -306 -149 -379 -3 -14 -9 -38 -14 -55
-8 -27 -13 -51 -35 -170 -24 -128 -36 -398 -23 -532 5 -51 -2 -55 -21 -10 -8
17 -17 34 -20 37 -8 7 -81 158 -114 235 -29 68 -92 253 -103 305 -11 47 -11
50 -14 53 -2 3 -7 26 -15 77 -4 24 -8 47 -10 50 -8 12 -18 159 -19 250 0 228
41 397 153 630 16 32 46 85 52 90 3 3 12 16 19 29 7 14 17 30 21 35 5 6 34 43
64 83 78 104 80 106 305 339 156 162 247 264 315 351 57 74 165 230 165 239 0
3 9 18 19 33 29 40 145 275 157 316 1 6 12 37 24 70 29 85 40 121 45 147 3 13
7 34 10 48 13 70 19 158 19 278 0 72 0 132 1 132 1 0 22 -28 47 -63z"/>
<path d="M5089 8342 c5 -10 17 -24 25 -32 9 -7 16 -17 16 -22 0 -5 9 -18 20
-30 11 -12 32 -40 47 -62 16 -23 36 -50 46 -60 9 -11 17 -26 17 -33 0 -7 4
-13 9 -13 5 0 24 -25 42 -56 19 -31 40 -62 47 -69 6 -8 12 -18 12 -23 0 -6 4
-12 8 -14 4 -1 29 -39 55 -83 26 -44 52 -87 57 -95 48 -75 148 -306 177 -409
14 -51 17 -67 28 -126 2 -11 6 -36 10 -55 8 -46 9 -200 1 -276 -4 -33 -16 -96
-26 -140 -11 -43 -22 -88 -25 -98 -15 -62 -116 -294 -158 -361 -67 -107 -176
-261 -222 -311 -5 -6 -35 -40 -65 -75 -30 -35 -62 -70 -70 -79 -8 -9 -55 -61
-105 -115 -49 -55 -100 -112 -113 -126 l-24 -27 361 0 361 0 31 36 c18 21 68
77 113 126 101 111 93 103 141 156 22 25 60 69 85 99 25 29 51 59 58 67 6 7
12 15 12 19 0 4 7 13 16 22 18 18 111 155 135 198 78 144 146 293 152 335 2 8
5 20 8 25 4 6 10 24 14 40 5 17 9 35 11 40 30 99 46 332 31 440 -9 61 -56 256
-66 270 -4 6 -13 28 -20 50 -29 83 -186 386 -224 430 -4 6 -31 46 -60 90 -28
44 -53 82 -57 85 -3 3 -25 34 -49 70 -25 36 -48 67 -51 70 -3 3 -17 21 -30 40
-13 19 -30 41 -37 48 -7 8 -18 22 -23 33 -10 18 -26 19 -371 19 -346 0 -359
-1 -350 -18z"/>
<path d="M7165 8336 c-417 -109 -685 -568 -571 -981 24 -86 105 -214 190 -298
114 -114 229 -186 561 -352 207 -104 212 -107 276 -150 50 -32 163 -145 154
-153 -2 -3 0 -11 6 -19 17 -20 2 -92 -28 -138 -31 -47 -99 -112 -128 -121 -11
-4 -22 -9 -25 -13 -24 -29 -187 -60 -290 -55 -102 5 -146 32 -154 95 -5 43 9
77 79 190 30 50 55 94 55 97 0 4 -167 7 -372 7 l-372 0 -82 -140 c-45 -77 -86
-145 -91 -150 -17 -21 -92 -171 -97 -195 -3 -14 -8 -36 -11 -50 -21 -87 10
-191 70 -233 42 -31 75 -47 94 -47 9 0 21 -4 26 -8 11 -9 90 -29 150 -37 85
-12 102 -14 180 -22 97 -9 542 -9 605 0 25 4 56 9 70 12 14 2 45 7 70 10 25 3
52 8 60 10 8 2 31 7 50 11 48 8 48 8 115 28 33 10 65 19 70 21 6 1 19 5 30 9
248 94 387 177 529 319 163 163 230 295 238 467 2 40 -11 120 -21 135 -4 6
-13 29 -20 53 -25 87 -99 203 -185 287 -93 92 -213 168 -361 228 -63 26 -276
96 -310 103 -33 6 -199 63 -246 83 -135 60 -199 164 -158 255 37 80 221 125
346 86 133 -42 215 -138 232 -272 1 -6 771 -8 783 -2 17 10 -137 322 -221 449
-66 99 -205 251 -271 295 -19 13 -37 27 -40 30 -7 7 -42 27 -120 65 -68 35
-175 69 -270 86 -30 6 -66 12 -80 15 -14 2 -115 6 -225 9 -186 4 -206 3 -290
-19z"/>
<path d="M8540 8357 c0 -2 18 -28 40 -58 22 -30 48 -65 58 -78 9 -13 28 -39
42 -57 68 -88 203 -294 225 -341 9 -18 20 -33 25 -33 6 0 10 -7 10 -15 0 -9
11 -33 25 -55 24 -38 85 -164 85 -175 0 -3 6 -18 14 -33 39 -76 82 -227 102
-357 7 -46 7 -223 -1 -285 -17 -149 -100 -394 -181 -538 -29 -51 -125 -204
-134 -212 -3 -3 -27 -34 -55 -70 -59 -77 -81 -104 -115 -141 -14 -15 -54 -60
-90 -100 -36 -40 -72 -80 -80 -89 -40 -42 -140 -157 -140 -162 0 -3 418 -6
929 -6 l930 0 43 47 c24 26 79 87 123 136 44 49 94 103 110 121 34 35 75 84
120 139 17 21 38 47 47 59 28 34 32 40 51 68 l17 28 -497 0 c-274 0 -524 0
-555 0 l-57 0 55 88 c50 78 84 144 139 269 l18 42 471 0 c259 0 508 0 552 1
l82 0 15 39 c20 48 56 190 65 251 10 62 8 337 -2 347 -4 4 -42 8 -85 9 -42 0
-82 3 -89 8 -7 4 -12 4 -12 -1 0 -10 -241 -10 -258 1 -7 4 -12 4 -12 -1 0 -10
-181 -10 -198 1 -7 4 -12 4 -12 -1 0 -10 -241 -10 -258 1 -7 4 -12 4 -12 -1 0
-9 -157 -9 -166 0 -3 3 -11 31 -19 64 -15 66 -55 189 -79 245 -9 21 -16 39
-16 42 0 2 233 4 518 4 284 1 534 1 555 1 l37 1 -50 98 c-60 117 -86 161 -157
272 -78 120 -214 313 -230 326 -7 6 -13 14 -13 18 0 4 -14 25 -32 47 l-31 39
-934 0 c-513 0 -933 -1 -933 -3z"/>
<path d="M4838 5085 c-2 -3 -55 -5 -118 -6 l-113 -2 -38 -84 c-70 -152 -118
-319 -137 -478 -9 -78 -9 -343 1 -420 9 -80 20 -143 32 -200 3 -11 7 -29 9
-40 20 -99 67 -247 121 -385 69 -174 231 -480 311 -587 13 -17 24 -35 24 -38
0 -4 6 -12 13 -20 6 -7 28 -32 47 -56 19 -24 44 -54 55 -66 l20 -23 1019 2
1020 3 -47 55 c-59 69 -52 59 -118 160 -89 136 -149 241 -197 343 -24 50 -30
57 -57 58 -16 0 -310 1 -652 1 -497 1 -623 4 -623 14 0 7 -4 14 -8 16 -9 3
-106 242 -117 288 l-6 25 636 0 c350 0 639 3 641 6 2 4 -3 30 -12 60 -9 29
-18 61 -20 71 -2 10 -7 28 -10 41 -3 12 -7 29 -8 37 -2 8 -6 29 -9 45 -17 77
-25 131 -32 215 -3 36 -8 75 -10 86 l-5 22 -640 -2 c-562 -1 -640 1 -641 14
-2 28 2 195 5 230 2 19 4 41 5 48 1 10 132 12 649 10 l648 -3 19 100 c10 55
19 102 20 105 5 29 64 189 95 256 22 47 40 88 40 91 0 4 -36 4 -184 2 -28 0
-53 -2 -58 -5 -4 -3 -8 -1 -8 5 0 6 -6 8 -14 5 -24 -9 -446 -10 -446 -1 0 5
-5 5 -10 2 -6 -4 -34 -6 -63 -6 -29 1 -68 0 -87 0 -19 -1 -42 -1 -50 0 -37 3
-115 -1 -122 -5 -4 -3 -8 0 -8 6 0 6 -5 8 -11 4 -6 -3 -52 -6 -102 -5 -133 2
-190 1 -199 -5 -4 -3 -8 -1 -8 5 0 6 -7 8 -15 5 -23 -9 -285 -10 -285 -1 0 5
-5 5 -10 2 -14 -9 -103 -10 -117 -2 -5 4 -12 4 -15 2z"/>
<path d="M7187 5084 c-4 -4 -41 -7 -83 -6 l-75 1 -41 -87 c-22 -48 -44 -96
-48 -107 -17 -44 -41 -114 -45 -134 -3 -11 -7 -29 -9 -38 -33 -139 -45 -248
-45 -403 0 -103 5 -185 14 -242 4 -24 9 -54 10 -68 2 -14 6 -41 10 -60 4 -19
9 -45 10 -57 2 -12 6 -26 9 -31 3 -5 8 -24 11 -43 8 -52 85 -289 108 -334 11
-22 20 -42 20 -45 0 -22 108 -243 172 -355 67 -116 184 -295 194 -295 3 0 22
-23 41 -50 l35 -50 478 0 478 0 -19 28 c-11 15 -36 45 -56 67 -20 22 -55 71
-79 108 -111 178 -147 241 -188 323 -24 49 -46 91 -49 94 -17 17 -175 440
-164 440 2 0 -1 11 -6 25 -12 32 -50 216 -57 273 l-5 44 120 -119 c115 -113
245 -235 342 -319 25 -21 47 -42 50 -45 6 -7 200 -173 271 -231 48 -40 87 -72
106 -88 6 -5 67 -52 135 -105 68 -52 128 -98 133 -103 6 -4 33 -24 60 -45 28
-20 55 -41 62 -47 7 -6 27 -20 45 -33 18 -12 58 -40 88 -63 103 -76 185 -130
253 -167 l68 -37 399 0 400 0 -72 90 c-40 50 -80 102 -88 118 -9 15 -31 52
-51 82 -73 113 -164 289 -249 485 -7 16 -40 110 -77 215 -21 62 -65 253 -78
340 -4 25 -9 56 -11 70 -2 14 -6 75 -9 135 -3 61 -5 112 -6 115 -1 3 0 10 1
15 1 6 4 50 6 99 2 49 6 97 8 105 3 9 8 36 11 61 13 95 68 276 108 355 11 22
18 40 16 40 -2 0 7 17 19 37 l23 37 -56 -2 c-30 -1 -55 2 -55 6 0 5 -5 5 -10
2 -6 -4 -34 -6 -63 -6 -29 1 -68 0 -87 0 -19 -1 -42 -1 -50 0 -37 3 -115 -1
-122 -5 -4 -3 -8 0 -8 6 0 6 -5 8 -12 4 -6 -4 -66 -7 -132 -6 -67 1 -126 -2
-132 -6 -25 -17 -104 -212 -137 -337 -39 -152 -49 -226 -51 -399 -2 -115 12
-289 28 -356 3 -14 8 -41 10 -60 3 -19 12 -60 20 -90 8 -30 13 -57 11 -58 -7
-7 -226 226 -375 398 -96 110 -114 133 -198 236 -89 112 -264 355 -327 455
-39 63 -99 199 -87 199 3 0 2 4 -4 10 -11 11 -13 11 -244 11 -233 0 -272 -1
-282 -7 -4 -3 -8 0 -8 6 0 6 -5 8 -11 4 -6 -3 -52 -6 -102 -5 -129 2 -190 1
-198 -5 -4 -2 -9 1 -11 7 -2 5 -7 7 -11 3z"/>
</g>
</svg>
